<svg width="292" height="373" viewBox="0 0 292 373" fill="none" xmlns="http://www.w3.org/2000/svg">
<path d="M175.361 360.819V360.831L175.343 360.825L175.361 360.819Z" fill="#A1ACC6"/>
<path d="M175.344 360.825L175.325 360.831V360.819L175.344 360.825Z" fill="#A1ACC6"/>
<path d="M113.151 263.684C113.446 267.139 107.544 307.457 76.0819 313.629C53.965 317.923 42.9562 298.566 41.6529 287.065C40.118 273.523 48.8232 261.315 54.1093 261.088C58.5816 260.895 58.2283 269.824 62.1502 276.321C68.2421 286.411 84.3809 286.159 91.6848 269.554L113.151 263.684Z" fill="#FEC267"/>
<path d="M69.015 291.983C66.7987 291.983 64.5347 291.532 62.3845 290.366C51.5186 284.47 52.9159 268.326 52.9159 268.326C53.0694 268.819 53.2176 269.321 53.3512 269.771C54.1875 272.587 55.2288 276.092 57.1765 279.319C60.9238 285.526 67.3239 288.943 74.1449 288.943C77.2689 288.943 80.4816 288.227 83.5686 286.733C83.5686 286.733 76.5729 291.983 69.015 291.983Z" fill="#FFE7C2"/>
<path d="M82.809 305.332C80.3558 306.519 77.7161 307.394 74.9625 307.934C68.4485 309.2 62.7112 308.062 57.9227 304.552C54.6081 302.122 52.0557 298.765 50.2866 295.33C62.7456 313.928 88.7447 294.101 86.0309 283.595L106.053 271.641C103.578 281.7 97.1019 298.419 82.809 305.332Z" fill="#EF9D59"/>
<path d="M70.0139 316.392C63.8161 316.393 58.0894 314.558 53.1924 310.964C44.8987 304.876 40.3417 294.698 39.5041 287.309C38.3543 277.165 42.558 268.172 46.5064 263.555C48.9701 260.672 51.6376 259.028 54.0167 258.926C58.3977 258.758 59.7143 263.195 60.9938 267.504C61.7374 270.009 62.5803 272.849 64.0014 275.203C66.3447 279.084 70.4638 281.232 75.0036 280.933C81.0955 280.54 86.453 276.076 89.7054 268.683C90.1857 267.59 91.4612 267.092 92.5555 267.574C93.6484 268.056 94.1446 269.332 93.6643 270.426C89.798 279.215 82.9254 284.758 75.2815 285.251C69.0943 285.65 63.4933 282.729 60.2991 277.439C58.5922 274.611 57.6647 271.49 56.847 268.736C56.0835 266.162 55.2181 263.249 54.2244 263.249H54.202C53.367 263.285 51.7117 264.122 49.7931 266.366C46.4084 270.324 42.8094 278.057 43.8018 286.821C44.5335 293.273 48.511 302.163 55.7514 307.477C61.3974 311.62 68.0979 312.975 75.6691 311.504C91.2323 308.453 99.9613 296.368 104.543 286.769C109.769 275.822 111.104 265.296 110.995 263.867C110.905 262.68 111.792 261.634 112.977 261.538C114.159 261.426 115.204 262.315 115.305 263.5C115.67 267.775 109.226 309.331 76.4975 315.752C74.2917 316.179 72.1257 316.392 70.0139 316.392Z" fill="#650000"/>
<path d="M122.99 345.799L65.6806 360.844C65.6806 360.844 49.7628 362.665 38.7487 362.665C16.3818 362.665 9.73413 327.943 9.73413 327.943L33.2443 304.986L92.8137 286.528" fill="#777782"/>
<path d="M122.99 345.8L65.6818 360.847C65.6818 360.847 49.76 362.668 38.7512 362.668C16.3803 362.668 9.73267 327.943 9.73267 327.943L27.6657 310.432L33.2442 304.985L77.5467 291.258L91.4824 286.939L92.8135 286.529L97.4658 295.668L122.99 345.8Z" fill="#FEC267"/>
<path d="M122.99 345.8L65.6818 360.847C65.6818 360.847 49.76 362.668 38.7512 362.668C16.3803 362.668 9.73267 327.943 9.73267 327.943L27.6657 310.432L42.214 305.153C51.3135 310.378 51.5133 332.132 67.9974 328.284C79.1147 325.684 76.9407 306.017 77.5467 291.258L91.4824 286.939C93.3653 289.517 95.3778 292.474 97.4658 295.668L122.99 345.8Z" fill="#EF9D59"/>
<path d="M38.7485 364.829C14.8692 364.829 7.89487 329.839 7.60959 328.35L7.39087 327.208L32.1062 303.074L32.605 302.92L92.1731 284.462C93.315 284.104 94.5257 284.746 94.8789 285.887C95.2322 287.029 94.5945 288.24 93.4526 288.594L34.3821 306.899L12.1038 328.652C13.4574 334.418 20.5919 360.503 38.7485 360.503C48.9476 360.503 63.6295 358.897 65.2835 358.713L122.441 343.706C123.598 343.404 124.779 344.094 125.082 345.249C125.385 346.405 124.694 347.587 123.539 347.891L66.08 362.976L65.9266 362.993C65.2716 363.069 49.76 364.829 38.7485 364.829Z" fill="#650000"/>
<path d="M65.6805 360.844C60.016 362.37 39.0834 368.29 25.7431 363.823C8.94887 358.202 0.188656 336.132 2.48661 320.016C5.90517 296.037 29.2165 293.708 41.0695 304.052C46.7499 309.01 51.4352 320.194 50.9549 330.426L65.6805 360.844Z" fill="#777782"/>
<path d="M65.6819 360.847C60.0187 362.37 39.0808 368.289 25.7458 363.824C14.5742 360.09 6.96229 349.076 3.79196 337.375L3.78653 337.364C2.19065 331.472 1.72 325.409 2.4881 320.015C5.90732 296.036 29.2192 293.706 41.0669 304.051C42.7274 305.499 44.302 307.482 45.6874 309.812V309.817C49.0469 315.47 51.2924 323.182 50.9563 330.424L65.6819 360.847Z" fill="#FEC267"/>
<path d="M65.6819 360.847C60.0187 362.37 39.0808 368.289 25.7458 363.824C14.5743 360.09 6.96232 349.076 3.79199 337.375C4.02461 337.899 12.0364 355.463 29.9006 353.706C47.7542 351.95 50.9828 329.565 45.6874 309.817C49.047 315.47 51.2924 323.182 50.9563 330.424L65.6819 360.847Z" fill="#EF9D59"/>
<path d="M66.2429 362.934C52.8603 366.457 35.1284 370.627 21.9364 364.615C4.94086 356.357 -3.39715 332.86 1.29311 315.108C3.23805 307.502 8.68159 300.423 16.2494 297.682C25.5301 294.175 36.9756 296.475 43.7939 303.767C49.6066 311.22 51.9235 321.19 50.9563 330.426C50.8385 326.775 50.0896 323.205 48.9186 319.829C45.6927 310.154 38.1254 301.475 27.5281 300.514C11.8511 299.057 3.75726 312.062 4.30771 326.429C4.86331 339.849 11.2861 354.528 23.7835 360.702C30.0951 363.656 37.2257 363.56 44.081 362.956C51.1547 362.251 58.1451 360.68 65.1182 358.755L66.2429 362.934Z" fill="#650000"/>
<path d="M41.0617 335.437C42.5582 343.505 37.9046 351.131 30.6669 352.472C23.4291 353.812 16.3488 348.358 14.8509 340.292C13.3544 332.224 18.008 324.598 25.2458 323.257C32.4836 321.916 39.5639 327.37 41.0617 335.437Z" fill="#FFF3E9"/>
<path d="M41.4492 315.626C41.9983 318.589 40.2888 321.391 37.6305 321.883C34.9723 322.376 32.3709 320.372 31.8218 317.409C31.2714 314.445 32.9809 311.645 35.6392 311.152C38.2974 310.66 40.8988 312.663 41.4492 315.626Z" fill="#FFF3E9"/>
<path d="M16.5287 322.497C17.0791 325.461 15.3696 328.262 12.71 328.755C10.0517 329.247 7.45089 327.243 6.90098 324.28C6.35107 321.317 8.06047 318.515 10.7186 318.023C13.3782 317.53 15.9782 319.534 16.5287 322.497Z" fill="#FFF3E9"/>
<path d="M27.937 314.226C28.547 317.514 26.6509 320.622 23.7002 321.169C20.7509 321.715 17.865 319.493 17.2537 316.204C16.6437 312.917 18.5412 309.808 21.4905 309.261C24.4412 308.715 27.327 310.938 27.937 314.226Z" fill="#FFF3E9"/>
<path d="M168.083 345.799L225.392 360.844C225.392 360.844 241.31 362.665 252.324 362.665C274.691 362.665 281.34 327.943 281.34 327.943L257.828 304.986L198.26 286.528" fill="#777782"/>
<path d="M168.083 345.8L225.391 360.847C225.391 360.847 241.312 362.668 252.321 362.668C274.692 362.668 281.341 327.943 281.341 327.943L263.407 310.432L257.83 304.985L213.527 291.258L199.59 286.939L198.259 286.529L193.607 295.668L168.083 345.8Z" fill="#FEC267"/>
<path d="M168.083 345.8L225.391 360.847C225.391 360.847 241.312 362.668 252.321 362.668C274.692 362.668 281.341 327.943 281.341 327.943L263.407 310.432L248.86 305.153C239.759 310.378 239.559 332.132 223.075 328.284C211.958 325.684 214.133 306.017 213.527 291.258L199.59 286.939C197.707 289.517 195.695 292.474 193.607 295.668L168.083 345.8Z" fill="#EF9D59"/>
<path d="M252.324 364.829C241.314 364.829 225.801 363.069 225.147 362.993L224.843 362.938L167.533 347.891C166.378 347.587 165.687 346.405 165.99 345.249C166.293 344.094 167.474 343.404 168.632 343.706L225.79 358.713C227.443 358.897 242.129 360.503 252.324 360.503C270.482 360.503 277.615 334.418 278.968 328.652L256.69 306.899L197.62 288.594C196.479 288.24 195.84 287.029 196.193 285.887C196.547 284.746 197.759 284.106 198.899 284.462L258.966 303.074L283.682 327.208L283.463 328.35C283.178 329.839 276.204 364.829 252.324 364.829Z" fill="#650000"/>
<path d="M225.392 360.844C231.058 362.37 251.989 368.29 265.329 363.823C282.124 358.202 290.884 336.132 288.587 320.016C285.168 296.037 261.856 293.708 250.004 304.052C244.324 309.01 239.638 320.194 240.117 330.426L225.392 360.844Z" fill="#777782"/>
<path d="M225.391 360.847C231.055 362.37 251.992 368.289 265.327 363.824C276.498 360.09 284.111 349.076 287.281 337.375L287.286 337.364C288.882 331.472 289.353 325.409 288.585 320.015C285.166 296.036 261.855 293.706 250.006 304.051C248.345 305.499 246.771 307.482 245.386 309.812V309.817C242.027 315.47 239.781 323.182 240.116 330.424L225.391 360.847Z" fill="#FEC267"/>
<path d="M225.391 360.847C231.055 362.37 251.992 368.289 265.327 363.824C276.498 360.09 284.111 349.076 287.281 337.375C287.048 337.899 279.036 355.463 261.172 353.706C243.32 351.95 240.09 329.565 245.386 309.817C242.027 315.47 239.781 323.182 240.116 330.424L225.391 360.847Z" fill="#EF9D59"/>
<path d="M225.954 358.755C238.284 362.003 255.338 366.105 267.289 360.702C282.347 353.342 289.756 331.981 285.61 316.254C281.887 301.719 266.844 296.241 254.184 303.662C248.304 307.318 244.424 313.303 242.154 319.829C240.984 323.205 240.235 326.775 240.117 330.426C239.149 321.19 241.467 311.221 247.28 303.767C254.098 296.474 265.542 294.177 274.823 297.682C286.554 302.003 291.568 314.861 291.089 326.554C290.462 341.636 283.191 357.703 269.136 364.615C255.937 370.628 238.224 366.457 224.831 362.934L225.954 358.755Z" fill="#650000"/>
<path d="M250.012 335.437C248.514 343.505 253.168 351.131 260.406 352.472C267.644 353.812 274.724 348.358 276.222 340.292C277.718 332.224 273.065 324.598 265.827 323.257C258.589 321.916 251.509 327.37 250.012 335.437Z" fill="#FFF3E9"/>
<path d="M249.625 315.626C249.074 318.589 250.784 321.391 253.442 321.883C256.101 322.376 258.702 320.372 259.252 317.409C259.801 314.445 258.093 311.645 255.433 311.152C252.775 310.66 250.174 312.663 249.625 315.626Z" fill="#FFF3E9"/>
<path d="M274.544 322.497C273.995 325.461 275.704 328.262 278.362 328.755C281.021 329.247 283.622 327.243 284.173 324.28C284.722 321.317 283.012 318.515 280.354 318.023C277.696 317.53 275.094 319.534 274.544 322.497Z" fill="#FFF3E9"/>
<path d="M263.135 314.226C262.525 317.514 264.423 320.622 267.372 321.169C270.323 321.715 273.209 319.493 273.819 316.204C274.429 312.917 272.533 309.808 269.582 309.261C266.632 308.715 263.747 310.938 263.135 314.226Z" fill="#FFF3E9"/>
<path d="M145.281 364.222V364.233L145.264 364.228L145.281 364.222Z" fill="#A1ACC6"/>
<path d="M145.266 364.228L145.247 364.233V364.222L145.266 364.228Z" fill="#A1ACC6"/>
<path d="M91.984 344.299C91.984 344.299 113.72 353.705 145.534 353.705C177.349 353.705 199.085 344.299 199.085 344.299L219.091 310.741C225.008 280.929 204.566 224.041 183.918 201.371H145.525H145.534H107.141C86.4929 224.041 66.0511 280.929 71.9684 310.741L91.984 344.299Z" fill="#C1612B"/>
<path d="M219.092 310.739L214.932 317.717L199.086 344.3C199.086 344.3 177.349 353.705 145.533 353.705C113.721 353.705 91.984 344.3 91.984 344.3L76.1389 317.733V317.727L71.967 310.739C66.0484 280.928 86.4928 224.041 107.144 201.373H183.917C204.566 224.041 225.011 280.928 219.092 310.739Z" fill="#FEC267"/>
<path d="M203.728 233.628C188.596 240.464 168.104 244.669 145.538 244.669C122.962 244.669 102.464 240.464 87.3318 233.623C93.2398 220.549 100.181 209.015 107.144 201.373H183.917C190.88 209.015 197.821 220.555 203.728 233.628Z" fill="#EF9D59"/>
<path d="M214.932 317.717L199.086 344.3C199.086 344.3 177.349 353.705 145.533 353.705C113.721 353.705 91.9839 344.3 91.9839 344.3L76.1389 317.733V317.727C79.9153 302.994 77.0691 275.199 81.6949 270.698C86.3194 266.195 134.155 276.604 134.155 276.604C134.155 276.604 137.061 291.456 145.538 291.456C154.01 291.456 156.92 276.604 156.92 276.604C156.92 276.604 204.756 266.195 209.381 270.698C214.007 275.199 211.161 302.984 214.932 317.717Z" fill="#EF9D59"/>
<path d="M199.432 318.467C199.178 350.878 145.538 349.695 145.538 349.695C145.538 349.695 91.8925 350.878 91.6384 318.467C91.4267 291.467 136.362 294.925 134.815 286.526C134.328 283.885 134.198 280.949 134.517 278.117C135.524 281.896 138.737 291.456 145.538 291.456C152.332 291.456 155.552 281.896 156.557 278.117C156.878 280.949 156.747 283.885 156.26 286.526C154.708 294.925 199.648 291.467 199.432 318.467Z" fill="#E8BA9A"/>
<path d="M134.155 276.604C134.155 276.604 137.06 291.455 145.538 291.455C154.01 291.455 156.92 276.604 156.92 276.604" fill="#A84E20"/>
<path d="M219.091 310.741C220.862 279.253 202.992 226.714 182.117 203.012L183.918 203.807L145.525 203.805V198.938C145.542 198.92 145.541 203.822 145.525 203.805V198.938C145.55 198.92 145.526 203.806 145.534 203.805L107.141 203.815L108.947 203.017C91.5922 223.161 80.0568 255.935 74.7522 281.848C72.9103 291.328 71.5355 300.869 71.9682 310.741C68.823 301.274 69.0268 290.919 70.2468 281.113C73.044 261.387 79.6373 242.387 88.7289 224.708C93.3904 215.838 98.568 207.236 105.335 199.726L106.06 198.926L107.141 198.928L145.534 198.938C145.525 198.938 145.55 203.822 145.525 203.805C145.534 203.805 145.509 198.921 145.534 198.938V203.805C145.509 203.822 145.534 198.938 145.525 198.938L183.918 198.934H185C192.077 206.636 197.462 215.555 202.233 224.757C213.918 247.763 226.71 285.354 219.091 310.741Z" fill="#650000"/>
<path d="M91.9839 344.299C100.997 345.608 109.749 347.704 118.674 349.375C136.346 352.655 154.721 352.653 172.395 349.377C176.815 348.535 181.202 347.589 185.606 346.672C190.038 345.734 194.546 344.832 199.084 344.299C197.22 345.767 195.157 346.877 193.061 347.875C170.902 358.295 112.075 359.007 91.9839 344.299Z" fill="#650000"/>
<path d="M97.9051 244.747C97.6471 244.702 97.3877 244.657 97.135 244.6C97.2475 244.612 97.528 244.645 97.9051 244.747Z" fill="#E23B3B"/>
<path d="M199.431 318.47C199.177 350.88 145.537 349.696 145.537 349.696C145.537 349.696 91.8914 350.88 91.636 318.47C91.4256 291.468 136.361 294.928 134.814 286.529C133.153 277.536 135.674 265.111 145.537 265.111C155.393 265.111 157.92 277.536 156.259 286.529C154.706 294.928 199.647 291.468 199.431 318.47Z" fill="#FFF3E9"/>
<path d="M199.432 318.467C199.178 350.878 145.538 349.695 145.538 349.695C145.538 349.695 91.8925 350.878 91.6384 318.467C91.4267 291.467 136.362 294.925 134.815 286.526C134.328 283.885 134.198 280.949 134.517 278.117C135.524 281.896 138.737 291.456 145.538 291.456C152.332 291.456 155.552 281.896 156.557 278.117C156.878 280.949 156.747 283.885 156.26 286.526C154.708 294.925 199.648 291.467 199.432 318.467Z" fill="#F4D7C1"/>
<path d="M134.082 275.548C136.985 322.186 141.235 348.234 135.45 358.501C129.995 370.034 113.802 371.502 106.223 369.514C100.03 370.618 93.2384 371.088 87.3238 367.747C73.9452 366.753 73.3378 347.397 89.4356 340.131C89.4356 340.131 78.5816 293.221 82.5154 256.845C83.8267 244.72 87.9364 223.769 102.588 204.989" fill="#FEC267"/>
<path d="M119.424 242.712C107.343 240.853 96.459 237.729 87.4614 233.682C90.4809 224.511 95.1927 214.475 102.588 204.989L119.424 242.712Z" fill="#EF9D59"/>
<path d="M135.448 358.499C129.995 370.037 113.803 371.502 106.224 369.513C100.029 370.621 93.2397 371.085 87.3211 367.746C80.7913 367.259 77.302 362.395 77.3179 356.699C79.2656 358.255 81.9385 359.114 85.3033 358.872C89.4475 362.011 95.5328 361.969 100.911 360.688C111.558 362.665 125.705 361.207 131.158 349.672C136.942 339.415 132.662 312.452 134.15 276.702C137.055 322.613 141.189 348.323 135.448 358.499Z" fill="#EF9D59"/>
<path d="M134.082 275.548C136.025 289.139 137.796 303.389 139.228 317.033C140.249 327.55 141.108 338.065 140.194 348.661C139.475 359.356 134.058 367.566 123.452 370.856C117.634 372.628 111.662 373.111 105.644 371.718L106.622 371.757C99.9654 373.032 92.3135 373.359 86.1303 369.859L87.1438 370.168C78.612 369.617 73.6858 361.856 75.3278 353.755C76.6669 346.595 82.1263 341.064 88.5437 338.154L87.3237 340.62C86.0323 334.827 84.9698 329.079 83.9973 323.274C80.3083 300.052 77.822 276.309 80.8349 252.828C83.2987 235.125 89.7981 217.83 100.882 203.659C101.618 202.715 102.98 202.546 103.922 203.283C104.862 204.019 105.029 205.378 104.293 206.321C93.7147 219.829 87.4706 236.472 85.118 253.427C81.5865 282.727 85.8828 312.644 91.9231 341.353L90.326 342.107C85.1299 344.344 80.7238 348.954 79.7817 354.555C78.784 360.44 81.9437 365.243 88.1071 365.395C93.4831 368.735 100.177 368.31 106.317 367.186C115.669 369.518 128.922 366.952 133.489 357.574C136.489 351.672 136.058 344.607 136.023 338.075C135.956 334.643 135.751 331.194 135.572 327.738C134.704 310.467 133.769 292.831 134.082 275.548Z" fill="#650000"/>
<path d="M121.984 344.94C112.947 339.949 99.7311 339.014 90.0031 342.217C88.8731 342.612 87.6373 342.013 87.2443 340.883C86.805 339.655 87.5884 338.291 88.8665 338.043C94.6991 336.857 100.599 337.216 106.33 338.381C111.882 339.578 117.433 341.511 121.984 344.94Z" fill="#650000"/>
<path d="M89.4448 348.234C85.5785 353.824 84.6708 363.001 90.7892 367.082L88.0819 370.455C81.6354 364.502 83.7088 353.72 89.4448 348.234Z" fill="#650000"/>
<path d="M105.449 348.234C100.776 353.565 100.025 364.346 107.283 367.628L105.163 371.4C97.1034 366.175 98.6528 353.742 105.449 348.234Z" fill="#650000"/>
<path d="M156.986 275.548C154.083 322.186 149.832 348.234 155.617 358.501C161.074 370.034 177.265 371.502 184.846 369.514C191.037 370.618 197.83 371.088 203.745 367.747C217.122 366.753 217.731 347.397 201.633 340.131C201.633 340.131 212.487 293.221 208.552 256.845C207.241 244.72 203.132 223.769 188.479 204.989" fill="#FEC267"/>
<path d="M203.608 233.682C194.612 237.729 183.728 240.853 171.642 242.712L188.477 204.989C195.878 214.475 200.59 224.511 203.608 233.682Z" fill="#EF9D59"/>
<path d="M155.619 358.499C161.072 370.037 177.265 371.502 184.844 369.513C191.038 370.621 197.829 371.085 203.747 367.746C210.277 367.259 213.766 362.395 213.749 356.699C211.803 358.255 209.13 359.114 205.765 358.872C201.621 362.011 195.534 361.969 190.157 360.688C179.509 362.665 165.363 361.207 159.909 349.672C154.126 339.415 158.406 312.452 156.917 276.702C154.013 322.613 149.879 348.323 155.619 358.499Z" fill="#EF9D59"/>
<path d="M156.986 275.548C157.3 292.825 156.36 310.471 155.496 327.738C155.16 334.556 154.689 341.495 155.223 348.258C155.512 351.454 156.049 354.83 157.578 357.574C162.144 366.954 175.401 369.515 184.75 367.186C190.889 368.311 197.587 368.736 202.961 365.395C209.115 365.238 212.284 360.459 211.287 354.555C210.342 348.951 205.938 344.344 200.741 342.107L199.144 341.353C205.186 312.644 209.481 282.727 205.95 253.427C203.596 236.472 197.352 219.829 186.775 206.321C186.039 205.378 186.206 204.019 187.147 203.283C188.089 202.547 189.45 202.714 190.185 203.659C201.27 217.831 207.768 235.125 210.234 252.828C213.245 276.309 210.759 300.052 207.07 323.274C206.099 329.079 205.035 334.827 203.745 340.62L202.523 338.154C208.942 341.064 214.402 346.595 215.741 353.755C217.38 361.837 212.463 369.624 203.925 370.168L204.938 369.861C198.754 373.359 191.103 373.032 184.445 371.757L185.423 371.718C179.406 373.113 173.433 372.628 167.615 370.857C157.011 367.562 151.593 359.367 150.875 348.661C149.959 338.067 150.818 327.55 151.84 317.033C153.27 303.392 155.043 289.135 156.986 275.548Z" fill="#650000"/>
<path d="M169.084 344.94C176.035 339.863 184.823 337.739 193.35 337.338C196.269 337.25 199.234 337.425 202.201 338.043C203.381 338.279 204.146 339.434 203.898 340.613C203.644 341.885 202.285 342.651 201.064 342.219C191.335 339.016 178.129 339.946 169.084 344.94Z" fill="#650000"/>
<path d="M201.624 348.234C207.358 353.718 209.432 364.502 202.986 370.455L200.278 367.082C206.398 362.999 205.489 353.828 201.624 348.234Z" fill="#650000"/>
<path d="M185.618 348.234C192.416 353.741 193.964 366.176 185.906 371.4L183.786 367.628C191.042 364.343 190.292 353.569 185.618 348.234Z" fill="#650000"/>
<path d="M142.941 156.546L142.631 156.595V156.497L142.941 156.546Z" fill="#512717"/>
<path d="M144.132 2.16266C247.087 3.68334 260.464 70.8117 257.406 141.072C259.556 145.931 265.203 162.609 257.406 179.715C241.554 214.492 185.622 227.065 144.132 227.065C102.641 227.065 46.7088 214.492 30.8559 179.715C23.0584 162.609 28.7057 145.931 30.8559 141.072C27.798 70.8117 41.1767 3.68334 144.13 2.16266H144.132Z" fill="#FEC267"/>
<path d="M257.407 179.716C241.554 214.494 185.623 227.068 144.13 227.068C102.637 227.068 46.705 214.494 30.8533 179.716C23.0559 162.606 28.7071 145.935 30.8533 141.069C28.7799 93.3137 34.2936 46.997 70.3832 21.7582C87.382 9.86273 111.16 2.65106 144.13 2.16534C177.1 2.65106 200.879 9.86273 217.878 21.7582C253.967 46.997 259.48 93.3137 257.407 141.069C259.554 145.935 265.205 162.606 257.407 179.716Z" fill="#FEC267"/>
<path d="M248.645 192.912C226.335 217.738 179.88 227.068 144.13 227.068C108.379 227.068 61.9241 217.738 39.614 192.912C67.3914 212.02 110.059 219.497 144.13 219.497C178.201 219.497 220.868 212.02 248.645 192.912Z" fill="#EF9D59"/>
<path d="M119.732 225.686C92.9789 224.174 64.2051 217.468 43.2539 199.877C31.1945 189.696 23.2899 174.448 24.4966 158.425C24.9147 152.12 26.2511 145.987 28.8789 140.197L28.695 141.166C25.2614 72.4595 40.4753 13.2574 117.806 2.03827C126.528 0.742577 135.32 0.15098 144.098 0.000102783L144.162 4.3266C135.544 4.47483 126.937 5.05584 118.442 6.31844C43.4445 17.0784 29.7853 74.6896 33.0165 140.979L33.0377 141.474L32.8339 141.948C30.7645 147.19 29.5538 152.97 29.3447 158.659C28.2213 203.209 84.0871 219.332 119.732 225.686Z" fill="#650000"/>
<path d="M144.163 5.03264e-05C237.179 1.31162 264.047 55.6102 259.567 141.167L259.384 140.198C264.506 151.736 265.41 165.119 261.186 177.093C252.358 201.053 227.464 213.78 204.243 220.179C192.597 223.337 180.569 225.158 168.53 225.687C204.233 219.136 259.925 203.369 258.908 158.659C258.664 153.001 257.522 147.191 255.429 141.948L255.224 141.474L255.245 140.978C255.981 123.688 255.821 106.314 253.185 89.3127C244.133 27.8554 202.724 5.0452 144.1 4.32655L144.163 5.03264e-05Z" fill="#650000"/>
<path d="M80.7476 15.5378C68.716 12.6182 38.4431 17.8115 20.8607 61.1887C14.4314 77.048 13.3689 104.873 33.8464 103.356C57.3976 101.613 47.876 59.8308 80.7476 15.5378Z" fill="#A56856"/>
<path d="M16.7443 82.4717C16.7377 81.258 16.7787 80.0285 16.8647 78.7924C16.7801 80.0246 16.739 81.2541 16.7457 82.4651C16.7443 82.4677 16.7443 82.4704 16.7443 82.4717ZM70.2628 15.1355C71.7884 14.9528 73.2373 14.8708 74.5936 14.8708C75.4801 14.8708 76.3283 14.9052 77.1301 14.9714L77.1288 14.9727C76.3256 14.9065 75.4761 14.8708 74.5883 14.8708C73.2333 14.8708 71.7871 14.9528 70.2628 15.1355Z" fill="#F9E7E3"/>
<path d="M78.9454 18.0207C79.5329 17.1935 80.1309 16.3676 80.7475 15.5378C79.6784 15.2784 78.4651 15.0825 77.1287 14.9727L77.13 14.9714C78.4664 15.0813 79.6798 15.2771 80.7489 15.5352C80.1323 16.3676 79.5329 17.1948 78.9454 18.0207Z" fill="#B28080"/>
<path d="M16.7456 82.465C16.7389 81.254 16.78 80.0245 16.8646 78.7924C17.2881 72.6038 18.7978 66.2801 20.8633 61.1927C25.6611 49.3488 31.4064 40.3518 37.4678 33.5888C45.2428 24.916 53.5378 19.9172 61.027 17.3033C61.0323 17.302 61.0389 17.2993 61.0442 17.298C61.0481 17.2967 61.0521 17.294 61.0561 17.2927C61.0587 17.2927 61.0614 17.2914 61.064 17.2901C64.3111 16.1598 67.4073 15.4769 70.2415 15.1381C70.2455 15.1368 70.2495 15.1368 70.2521 15.1368C70.2561 15.1355 70.2601 15.1354 70.2627 15.1354C71.787 14.9528 73.2332 14.8707 74.5882 14.8707C75.476 14.8707 76.3255 14.9065 77.1287 14.9726C78.4651 15.0825 79.6784 15.2784 80.7476 15.5378C80.131 16.3676 79.5329 17.1935 78.9454 18.0206C78.5815 18.5341 78.2229 19.0463 77.8683 19.5585C77.8538 19.5585 77.8392 19.5585 77.826 19.5585C62.6002 19.5585 36.5165 29.3099 20.3949 69.0833C18.7899 73.0312 17.5064 77.6846 16.7456 82.465Z" fill="#D2B4AB"/>
<path d="M80.7489 15.5352C47.8799 59.8269 57.4015 101.617 33.8437 103.358C22.5781 104.191 17.8266 96.1367 16.9097 86.0835C19.5243 90.1704 23.5057 92.6718 29.1464 92.3422C51.7595 91.0227 49.2825 41.1591 80.6841 15.518C80.7026 15.5272 80.7304 15.5272 80.7489 15.5352Z" fill="#8C5144"/>
<path d="M74.6452 17.0505C61.7627 17.0505 37.9125 24.8789 22.864 62.0026C18.3732 73.0815 17.0262 89.0679 22.5451 96.6422C25.0486 100.078 28.6966 101.572 33.6863 101.199C43.9052 100.443 46.9048 91.5574 52.2028 73.1424C56.5163 58.146 62.3529 37.8544 76.925 17.1365C76.2105 17.081 75.4497 17.0505 74.6452 17.0505ZM32.3075 105.577C26.6682 105.577 22.1085 103.389 19.0493 99.1912C12.3316 89.9692 13.8678 72.6845 18.8561 60.3761C26.6483 41.1538 38.0475 26.8867 51.8244 19.1178C63.5464 12.507 74.7126 11.8466 81.2571 13.4361C81.9623 13.6068 82.5339 14.1203 82.7814 14.8019C83.0275 15.4849 82.9163 16.2445 82.4837 16.8269C66.8384 37.91 61.0284 58.1076 56.3589 74.3375C51.3216 91.8485 47.6828 104.501 34.0065 105.514C33.4296 105.556 32.8633 105.577 32.3075 105.577Z" fill="#650000"/>
<path d="M210.097 15.5378C222.129 12.6182 252.402 17.8115 269.984 61.1887C276.413 77.048 277.476 104.873 256.998 103.356C233.447 101.613 242.967 59.8308 210.097 15.5378Z" fill="#A56856"/>
<path d="M274.101 82.4717C274.101 82.4704 274.101 82.4677 274.099 82.4651C274.106 81.2475 274.065 80.0126 273.979 78.7725C274.065 80.0153 274.107 81.2514 274.101 82.4717ZM253.816 34.0838C245.787 24.961 237.176 19.8021 229.45 17.1763C237.175 19.8021 245.79 24.9623 253.816 34.0838ZM211.565 15.2387L211.562 15.2374C212.953 15.0044 214.527 14.8708 216.251 14.8708C217.621 14.8708 219.086 14.9555 220.627 15.1407C219.087 14.9555 217.625 14.8708 216.257 14.8708C214.533 14.8708 212.955 15.0045 211.565 15.2387Z" fill="#F9E7E3"/>
<path d="M211.787 17.8632C211.236 17.0889 210.674 16.3147 210.096 15.5351C210.559 15.424 211.047 15.3234 211.562 15.2374L211.564 15.2387C211.05 15.3261 210.56 15.4253 210.097 15.5378C210.674 16.3133 211.236 17.0889 211.787 17.8632Z" fill="#B28080"/>
<path d="M274.099 82.465C273.338 77.6846 272.055 73.0312 270.45 69.0833C254.328 29.3099 228.245 19.5585 213.019 19.5585C213.005 19.5585 212.991 19.5585 212.976 19.5585C212.585 18.9934 212.189 18.4296 211.787 17.8631C211.236 17.0889 210.674 16.3133 210.097 15.5378C210.56 15.4253 211.05 15.326 211.565 15.2387C212.955 15.0044 214.532 14.8707 216.257 14.8707C217.625 14.8707 219.087 14.9554 220.627 15.1407C220.634 15.1407 220.64 15.1421 220.648 15.1434C223.369 15.4729 226.329 16.1175 229.431 17.171C229.434 17.171 229.438 17.1723 229.441 17.1736C229.445 17.1749 229.447 17.1749 229.45 17.1762C237.176 19.802 245.787 24.961 253.816 34.0837C259.716 40.7885 265.299 49.6347 269.981 61.1927C272.044 66.2748 273.553 72.5905 273.979 78.7725C274.065 80.0126 274.106 81.2474 274.099 82.465Z" fill="#D2B4AB"/>
<path d="M210.096 15.5352C242.965 59.8269 233.443 101.617 257.001 103.358C268.266 104.191 273.018 96.1367 273.935 86.0835C271.32 90.1704 267.34 92.6718 261.698 92.3422C239.085 91.0227 241.562 41.1591 210.161 15.518C210.142 15.5272 210.114 15.5272 210.096 15.5352Z" fill="#8C5144"/>
<path d="M213.92 17.1365C228.492 37.8544 234.329 58.1474 238.642 73.1424C243.94 91.5574 246.94 100.443 257.159 101.199C262.155 101.572 265.796 100.079 268.3 96.6422C273.819 89.0679 272.47 73.0815 267.981 62.0026C251.994 22.5642 226.069 16.1889 213.92 17.1365ZM258.537 105.577C257.982 105.577 257.415 105.556 256.838 105.514C243.163 104.501 239.523 91.8485 234.486 74.3375C229.816 58.1076 224.006 37.91 208.361 16.8269C207.929 16.2445 207.817 15.4849 208.063 14.8019C208.311 14.1203 208.883 13.6068 209.588 13.4361C216.13 11.8506 227.297 12.507 239.022 19.1178C252.797 26.8867 264.198 41.1538 271.989 60.3761C276.978 72.6845 278.513 89.9692 271.796 99.1912C268.736 103.389 264.175 105.577 258.537 105.577Z" fill="#650000"/>
<path d="M144.376 63.102V63.1117L144.357 63.102H144.376Z" fill="#686779"/>
<path d="M61.0058 129.075C64.5598 144.891 80.0423 151.814 96.4391 147.334C112.73 142.883 118.979 135.486 118.979 135.486C127.782 89.7137 103.357 76.4246 84.1495 82.8395C67.4841 88.4061 56.499 109.019 61.0058 129.075Z" fill="#A56856"/>
<path d="M193.861 192.719C193.861 192.719 183.668 198.905 168.835 203.003C161.496 205.037 153.019 206.548 144.075 206.548C135.176 206.548 126.737 205.046 119.425 203.029C104.528 198.942 94.2798 192.719 94.2798 192.719C94.2798 192.719 107.334 145.23 144.075 145.23C180.806 145.23 193.861 192.719 193.861 192.719Z" fill="#A56957"/>
<path d="M193.861 192.719C193.861 192.719 183.668 198.905 168.835 203.003C156.826 199.024 147.359 185.956 144.166 174.876C140.975 185.984 131.47 199.08 119.425 203.029C104.528 198.942 94.2798 192.719 94.2798 192.719C94.2798 192.719 107.334 145.23 144.075 145.23C180.806 145.23 193.861 192.719 193.861 192.719Z" fill="#8C5144"/>
<path d="M96.8638 191.692C102.249 194.629 121.822 204.384 144.072 204.384C166.362 204.384 185.904 194.632 191.282 191.693C188.615 183.579 174.987 147.392 144.072 147.392C113.157 147.392 99.5287 183.578 96.8638 191.692ZM144.072 208.711C116.767 208.711 94.1103 195.144 93.1589 194.565L91.7629 193.718L92.197 192.143C92.3332 191.646 95.6425 179.801 103.596 167.779C114.294 151.612 128.291 143.066 144.072 143.066C159.855 143.066 173.85 151.612 184.548 167.779C192.502 179.801 195.811 191.646 195.948 192.143L196.381 193.718L194.985 194.565C194.034 195.144 171.378 208.711 144.072 208.711Z" fill="#512717"/>
<path d="M114.522 119.844C114.53 132.42 105.699 142.62 94.7971 142.625C83.8968 142.632 75.054 132.442 75.0474 119.867C75.0394 107.292 83.8703 97.0922 94.7706 97.0856C105.672 97.0803 114.515 107.268 114.522 119.844Z" fill="#650000"/>
<path d="M106.581 113.266C106.584 117.761 103.705 121.407 100.151 121.409C96.5965 121.411 93.7133 117.769 93.7107 113.274C93.708 108.78 96.5873 105.134 100.141 105.132C103.695 105.13 106.579 108.772 106.581 113.266Z" fill="white"/>
<path d="M87.4269 133.035C85.4593 133.037 83.8623 130.572 83.8596 127.531C83.8583 124.488 85.4527 122.021 87.4203 122.02C89.3892 122.02 90.9862 124.484 90.9876 127.526C90.9902 130.568 89.3958 133.035 87.4269 133.035Z" fill="#843333"/>
<path d="M227.256 129.075C223.702 144.891 208.22 151.814 191.824 147.334C175.533 142.883 169.283 135.486 169.283 135.486C160.481 89.7137 184.905 76.4246 204.113 82.8395C220.778 88.4061 231.764 109.019 227.256 129.075Z" fill="#A56856"/>
<path d="M174 119.759C173.992 132.334 182.823 142.534 193.725 142.54C204.625 142.546 213.468 132.357 213.474 119.781C213.482 107.207 204.651 97.0067 193.751 97C182.849 96.9947 174.007 107.183 174 119.759Z" fill="#650000"/>
<path d="M181.941 113.181C181.938 117.675 184.817 121.322 188.371 121.323C191.925 121.326 194.808 117.683 194.811 113.189C194.814 108.694 191.934 105.048 188.38 105.047C184.826 105.044 181.943 108.686 181.941 113.181Z" fill="white"/>
<path d="M201.095 132.95C203.062 132.951 204.659 130.487 204.662 127.445C204.663 124.403 203.069 121.936 201.101 121.934C199.133 121.934 197.535 124.399 197.534 127.44C197.532 130.483 199.126 132.95 201.095 132.95Z" fill="#843333"/>
<path d="M107.572 61.9908C93.6074 49.603 75.0141 53.0943 64.7992 68.0536C61.4846 72.6594 58.8899 77.7958 56.8879 83.136C57.8658 77.3815 60.0014 71.8851 62.96 66.8426C66.0258 61.7671 70.2758 57.1455 75.6148 54.394C86.8499 48.5574 100.714 50.8417 107.572 61.9908Z" fill="#650000"/>
<path d="M180.688 61.9908C187.545 50.8417 201.417 48.5587 212.646 54.394C217.985 57.1455 222.236 61.7671 225.3 66.8426C228.26 71.8851 230.396 77.3815 231.372 83.136C229.372 77.7958 226.776 72.658 223.461 68.0536C213.245 53.089 194.644 49.6083 180.688 61.9908Z" fill="#650000"/>
<path d="M97.3957 193.716C95.4718 193.716 93.528 193.488 91.6174 193.039C85.4501 191.589 82.2466 187.644 80.6443 184.588C77.8696 179.298 77.5798 172.371 79.8848 166.514C86.1977 150.479 108.008 141.461 141.431 141.001L137.078 156.143C131.883 174.212 115.235 193.716 97.397 193.716H97.3957Z" fill="#A56957"/>
<path d="M258.594 247.106C240.345 254.286 229.724 249.356 215.333 233.602C205.007 222.3 189.416 222.41 170.002 222.438C159.986 222.453 144.109 222.48 144.109 222.48C144.109 222.48 128.231 222.498 118.215 222.516C98.7969 222.544 83.2099 222.48 72.917 233.809C58.5671 249.606 47.9645 254.567 29.6875 247.444C13.8412 241.265 5.90753 213.544 26.4603 197.415C5.86122 181.354 13.7128 153.606 29.5446 147.386C47.7938 140.207 58.4189 145.136 72.8111 160.892C75.2391 163.547 77.953 165.572 80.9434 167.116C88.9658 171.262 98.9452 171.939 110.53 172.041C112.995 172.064 115.534 172.06 118.14 172.05C128.153 172.036 144.03 172.013 144.03 172.013C144.03 172.013 159.913 171.989 169.928 171.971C183.697 171.954 195.541 171.98 204.933 167.959C205.649 167.651 206.35 167.324 207.038 166.968C210.048 165.41 212.785 163.363 215.222 160.679C229.572 144.887 240.178 139.925 258.451 147.05C274.302 153.228 282.231 180.949 261.682 197.073C282.282 213.138 274.426 240.882 258.594 247.106Z" fill="#FFF3E9"/>
<path d="M258.597 247.105C240.342 254.288 229.723 249.359 215.333 233.6C205.004 222.299 189.413 222.413 170.002 222.439C159.989 222.45 144.111 222.478 144.111 222.478C144.111 222.478 128.231 222.499 118.217 222.515C98.7957 222.542 83.21 222.478 72.9197 233.811C58.5672 249.608 47.9633 254.569 29.6889 247.446C13.8426 241.263 5.90616 213.544 26.459 197.416C5.86276 181.354 13.7129 153.608 29.542 147.387C47.7953 140.205 58.4203 145.133 72.8112 160.893C74.7642 163.028 76.9064 164.757 79.2273 166.152C79.791 166.497 80.3586 166.816 80.9421 167.114C88.9658 171.259 98.9479 171.939 110.53 172.042C112.997 172.063 115.534 172.058 118.142 172.048C128.15 172.037 144.028 172.016 144.028 172.016C144.028 172.016 144.062 172.016 144.126 172.016H144.132C145.522 172.016 160.388 171.988 169.927 171.972C183.695 171.951 195.542 171.983 204.934 167.962C205.649 167.648 206.353 167.324 207.039 166.968C207.682 166.633 208.311 166.281 208.933 165.897C211.205 164.509 213.303 162.79 215.225 160.676C229.572 144.884 240.181 139.924 258.45 147.052C274.302 153.229 282.233 180.949 261.685 197.076C282.282 213.138 274.426 240.879 258.597 247.105Z" fill="white"/>
<path d="M144.126 172.016V174.875C134.523 194.158 118.608 200.373 100.489 198.562C81.4516 196.661 74.0669 179.895 79.2273 166.152C79.791 166.497 80.3586 166.816 80.9422 167.114C88.9659 171.259 98.9479 171.939 110.53 172.042C112.997 172.064 115.534 172.058 118.142 172.048C128.15 172.037 144.029 172.016 144.029 172.016C144.029 172.016 144.062 172.016 144.126 172.016Z" fill="#F9DDC7"/>
<path d="M187.774 198.562C169.65 200.373 153.739 194.158 144.132 174.875V172.016C145.522 172.016 160.388 171.988 169.927 171.972C183.695 171.951 195.542 171.983 204.934 167.962C205.649 167.648 206.351 167.324 207.039 166.968C207.682 166.632 208.311 166.281 208.933 165.898C214.277 179.69 206.926 196.649 187.774 198.562Z" fill="#F9DDC7"/>
<path d="M240.663 203.884C240.663 203.884 238.852 193.088 245.647 184.177C252.086 175.731 264.645 174.108 265.094 180.114C265.948 191.531 248.33 192.662 240.663 203.884Z" fill="#F9DDC7"/>
<path d="M227.77 236.364C227.77 236.364 240.739 247.027 252.481 242.625C266.155 237.499 270.916 227.879 266.531 223.014C262.144 218.15 242.885 239.81 227.77 236.364Z" fill="#F9DDC7"/>
<path d="M62.3077 236.364C62.3077 236.364 49.3379 247.027 37.5961 242.625C23.9224 237.499 19.1616 227.879 23.5466 223.014C27.9329 218.15 47.1917 239.81 62.3077 236.364Z" fill="#F9DDC7"/>
<path d="M22.6813 183.176C24.1434 177.622 40.8061 176.522 44.8656 181.814C49.7508 188.18 49.2996 193.397 52.8656 195.358C40.9226 201.871 20.3234 192.137 22.6813 183.176Z" fill="#F9DDC7"/>
<path d="M76.7583 224.304C76.7583 224.304 81.7745 209.032 88.3281 208.499C94.8818 207.967 103.283 214.074 101.711 215.776C98.9665 218.749 84.1204 217.235 76.7583 224.304Z" fill="#F9DDC7"/>
<path d="M213.647 224.304C213.647 224.304 208.631 209.032 202.076 208.499C195.522 207.967 187.122 214.074 188.694 215.776C191.439 218.749 206.285 217.235 213.647 224.304Z" fill="#F9DDC7"/>
<path d="M44.1512 146.326C39.9355 146.326 35.446 147.386 30.3332 149.398C23.2397 152.188 17.8081 159.841 16.4968 168.897C15.0082 179.181 19.1233 188.955 27.7874 195.712C28.3127 196.122 28.6197 196.749 28.621 197.415C28.621 198.081 28.3167 198.709 27.7927 199.121C19.1484 205.904 15.0611 215.69 16.5815 225.969C17.9192 235.02 23.372 242.658 30.4735 245.427C46.6718 251.743 56.5943 248.565 71.3173 232.356C82.1739 220.404 98.6713 220.381 117.774 220.354L170.434 220.275C189.546 220.256 206.035 220.223 216.926 232.143C231.695 248.31 241.63 251.457 257.807 245.093C264.902 242.305 270.332 234.65 271.643 225.595C273.132 215.311 269.017 205.537 260.353 198.779C259.829 198.371 259.52 197.743 259.52 197.077C259.519 196.412 259.825 195.783 260.347 195.372C268.993 188.589 273.079 178.803 271.559 168.522C270.222 159.471 264.768 151.833 257.667 149.064C241.472 142.75 231.546 145.925 216.824 162.135C205.968 174.087 189.472 174.111 170.37 174.139L117.704 174.216C98.6051 174.242 82.1051 174.27 71.2141 162.348C61.1129 151.293 53.2731 146.326 44.1512 146.326ZM44.4277 252.787C39.8058 252.787 34.7209 251.727 28.9029 249.458C20.379 246.135 13.8637 237.163 12.3023 226.602C10.6735 215.585 14.5914 205.087 23.0928 197.423C14.5689 189.785 10.6206 179.299 12.2163 168.276C13.7459 157.71 20.2361 148.72 28.7507 145.372C49.0416 137.392 60.4514 144.155 74.4069 159.43C84.0092 169.939 98.8737 169.917 117.697 169.889L170.364 169.812C189.186 169.785 204.05 169.763 213.623 159.226C227.534 143.912 238.923 137.113 259.237 145.033C267.761 148.356 274.278 157.328 275.838 167.889C277.467 178.907 273.549 189.405 265.047 197.068C273.571 204.707 277.52 215.193 275.924 226.215C274.394 236.781 267.904 245.772 259.391 249.119C239.099 257.1 227.689 250.336 213.733 235.061C204.131 224.552 189.276 224.585 170.44 224.602L144.11 224.64L117.779 224.68C98.9571 224.707 84.0899 224.728 74.518 235.267C64.5916 246.195 55.9473 252.787 44.4277 252.787Z" fill="#650000"/>
<path d="M27.5889 195.574C35.1509 201.049 45.6543 201.681 54.5658 198.832C50.1861 200.958 45.3182 202.283 40.2822 202.469C35.2607 202.653 30.05 201.708 25.3276 199.263L27.5889 195.574Z" fill="#650000"/>
<path d="M262.757 198.95C259.044 200.632 255.343 201.483 251.788 202.594C248.295 203.72 244.615 204.931 242.355 208.024C243.986 204.502 247.67 202.387 250.95 200.601C254.314 198.801 257.769 197.23 260.608 195.197L262.757 198.95Z" fill="#650000"/>
<path d="M144.133 133.652C157.015 133.652 198.395 132.845 211.51 157.154C218.257 171.865 210.768 191.519 189.925 192.912C170.761 194.193 154.209 185.526 144.132 163.855C134.054 185.526 117.503 194.193 98.3379 192.912C77.4952 191.519 70.006 171.865 76.7516 157.154C89.8682 132.845 131.248 133.652 144.13 133.652H144.133Z" fill="#A56856"/>
<path d="M78.6318 158.246C78.6504 158.204 78.6689 158.162 78.6887 158.119C87.2536 142.335 108.57 137.709 125.399 136.361C125.665 137.02 125.983 137.66 126.342 138.279C110.023 139.495 88.7859 143.713 78.6318 158.246ZM209.631 158.246C199.456 143.689 178.156 139.479 161.826 138.272C162.184 137.654 162.5 137.016 162.765 136.359C179.607 137.699 200.994 142.308 209.575 158.119C209.593 158.162 209.613 158.204 209.631 158.246Z" fill="#D2B4AB"/>
<path d="M139.225 161.578C131.187 178.865 118.653 187.63 101.971 187.63C100.901 187.63 99.8001 187.593 98.6993 187.519C89.4225 186.9 84.7596 182.215 82.4798 178.392C79.1903 172.875 78.8582 165.676 81.5985 159.563C85.4966 196.319 133.126 172.315 139.225 161.578Z" fill="#8C5144"/>
<path d="M149.01 161.578C157.048 178.865 169.583 187.63 186.264 187.63C187.334 187.63 188.435 187.593 189.536 187.519C198.813 186.9 203.477 182.215 205.756 178.392C209.045 172.875 209.379 165.676 206.637 159.563C202.739 196.319 155.11 172.315 149.01 161.578Z" fill="#8C5144"/>
<path d="M186.238 195.201C167.965 195.201 153.529 186.107 144.132 168.682C134.734 186.106 120.294 195.199 102.024 195.201C100.764 195.201 99.4889 195.157 98.1922 195.071C88.3901 194.415 80.496 189.862 75.9655 182.25C71.4005 174.581 70.9493 164.619 74.7865 156.252L74.8487 156.126C88.1943 131.393 127.964 131.472 142.929 131.487L144.13 131.49V135.815L142.921 135.813C128.67 135.791 90.8419 135.723 78.6886 158.119C75.4666 165.2 75.8451 173.592 79.681 180.038C83.4626 186.39 90.1393 190.195 98.4806 190.754C118.001 192.06 133.104 182.441 142.171 162.942L144.132 158.725L146.092 162.942C155.159 182.441 170.26 192.057 189.781 190.754C198.122 190.195 204.799 186.39 208.581 180.038C212.418 173.592 212.796 165.2 209.574 158.119C197.421 135.723 159.573 135.803 145.342 135.813L144.133 135.815V131.49L145.334 131.487C160.33 131.478 200.07 131.393 213.414 156.126L213.476 156.252C217.314 164.619 216.862 174.581 212.298 182.25C207.767 189.862 199.873 194.415 190.07 195.071C188.775 195.157 187.497 195.201 186.238 195.201Z" fill="#650000"/>
<path d="M162.958 135.852C160.724 142.088 153.921 146.622 149.123 149.15C145.959 150.818 142.187 150.815 139.024 149.146C134.228 146.614 127.428 142.073 125.2 135.837C122.654 128.688 140.662 127.53 144.083 127.531C147.503 127.532 165.51 128.706 162.958 135.852Z" fill="#650000"/>
<path d="M144.105 133.652C144.088 133.652 144.08 133.652 144.08 133.652C144.08 133.652 144.072 133.652 144.059 133.652C143.659 133.652 137.684 133.611 136.253 131.172C135.199 129.369 142.647 129.075 144.077 129.075C144.079 129.075 144.08 129.075 144.081 129.075C145.5 129.077 152.965 129.375 151.908 131.179C150.482 133.607 144.548 133.652 144.105 133.652Z" fill="#B28080"/>
<path d="M91.4876 173.681C91.436 175.039 92.4972 176.182 93.8561 176.233C95.2164 176.284 96.3596 175.224 96.4112 173.866C96.4615 172.508 95.4003 171.365 94.0414 171.314C92.6812 171.263 91.5379 172.323 91.4876 173.681Z" fill="#650000"/>
<path d="M82.6106 169.312C82.5603 170.67 83.6202 171.812 84.9804 171.864C86.3393 171.914 87.4839 170.855 87.5341 169.496C87.5857 168.138 86.5246 166.996 85.1643 166.944C83.8054 166.894 82.6622 167.954 82.6106 169.312Z" fill="#650000"/>
<path d="M91.5962 164.049C91.5459 165.406 92.6071 166.549 93.966 166.6C95.3262 166.651 96.4694 165.592 96.5197 164.232C96.5713 162.875 95.5101 161.732 94.1512 161.681C92.791 161.631 91.6478 162.691 91.5962 164.049Z" fill="#650000"/>
<path d="M196.777 173.681C196.827 175.039 195.767 176.182 194.407 176.233C193.048 176.284 191.904 175.224 191.853 173.866C191.802 172.508 192.863 171.365 194.222 171.314C195.582 171.263 196.725 172.323 196.777 173.681Z" fill="#650000"/>
<path d="M205.653 169.312C205.704 170.67 204.643 171.812 203.284 171.864C201.924 171.914 200.781 170.855 200.729 169.496C200.679 168.138 201.739 166.996 203.099 166.944C204.458 166.894 205.602 167.954 205.653 169.312Z" fill="#650000"/>
<path d="M196.667 164.049C196.718 165.406 195.657 166.549 194.297 166.6C192.938 166.651 191.795 165.592 191.743 164.232C191.692 162.875 192.753 161.732 194.113 161.681C195.472 161.631 196.615 162.691 196.667 164.049Z" fill="#650000"/>
<path d="M141.968 163.855L143.051 146.841H145.213L146.294 163.855H141.968Z" fill="#650000"/>
</svg>
