<svg width="142" height="122" viewBox="0 0 142 122" fill="none" xmlns="http://www.w3.org/2000/svg">
<path d="M118.741 99.9694L23.6049 100.418C18.4699 100.443 14.2871 96.2996 14.2632 91.1642L13.9784 30.8352C13.9539 25.7001 18.0973 21.5174 23.2323 21.4934L118.369 21.0443C123.504 21.0198 127.686 25.1632 127.71 30.2982L127.995 90.6271C128.02 95.7626 123.877 99.9455 118.741 99.9694Z" fill="#F99F78"/>
<path d="M125.413 97.0482L83.1411 60.6739L125.068 23.9023C125.262 23.7322 125.282 23.4368 125.112 23.2422C124.942 23.0485 124.646 23.0287 124.451 23.1993L73.7735 67.6457C72.2102 69.0166 69.8427 69.0288 68.2663 67.6713L17.1715 23.7051C16.9759 23.5366 16.6805 23.5587 16.5114 23.7546C16.3428 23.9505 16.3649 24.2459 16.561 24.4141L58.8331 60.7884L16.9064 97.5601C16.7122 97.7302 16.693 98.0261 16.8631 98.2203C16.9228 98.2886 16.9981 98.3357 17.0792 98.3599C17.2286 98.405 17.397 98.374 17.5229 98.2635L59.5489 61.4045L67.6554 68.3803C68.209 68.8562 68.8413 69.1945 69.5076 69.3949C71.1634 69.8939 73.0269 69.5437 74.3897 68.3482L82.4304 61.2963L124.802 97.7567C124.854 97.801 124.912 97.8319 124.972 97.8498C125.144 97.9016 125.338 97.8519 125.462 97.7073C125.631 97.5127 125.609 97.2168 125.413 97.0482Z" fill="white"/>
</svg>
