<svg width="791" height="528" viewBox="0 0 791 528" fill="none" xmlns="http://www.w3.org/2000/svg">
<path d="M609.172 111.913H594.767V526.245H609.172V111.913Z" fill="#4E484A"/>
<path d="M713.476 121.138H623.615V45.6125C623.615 20.7979 643.73 0.681946 668.545 0.681946C693.36 0.681946 713.476 20.7979 713.476 45.6125V121.138Z" fill="#F66A57"/>
<path d="M588.317 121.138H713.476L668.545 0.681946H543.387L588.317 121.138Z" fill="#F66A57"/>
<path d="M588.317 121.138H498.456V45.6125C498.456 20.7979 518.572 0.681946 543.387 0.681946C568.201 0.681946 588.317 20.7979 588.317 45.6125V121.138Z" fill="#D85648"/>
<path d="M578.388 111.707H508.385V46.5081C508.385 27.208 524.087 11.5065 543.387 11.5065C562.687 11.5065 578.389 27.208 578.389 46.5081L578.388 111.707ZM510.148 109.944H576.626V46.5081C576.626 28.1799 561.715 13.2688 543.387 13.2688C525.059 13.2688 510.148 28.1799 510.148 46.5081V109.944Z" fill="#F76A58"/>
<path d="M693.884 55.9441H682.279V41.8348H602.746V30.2302H693.884V55.9441Z" fill="#F8F9EC"/>
<path d="M790.302 524.742H0.696899V527.748H790.302V524.742Z" fill="#4E484A"/>
</svg>
