<svg width="433" height="769" viewBox="0 0 433 769" fill="none" xmlns="http://www.w3.org/2000/svg">
<path d="M360.557 146.155C360.557 146.155 378.083 147.255 387.194 170.646C387.194 170.646 363.205 171.535 360.557 146.155Z" fill="#263656"/>
<path d="M395.267 138.765C390.443 133.246 382.059 132.681 376.539 137.504L289.911 213.202L209.324 158.338C209.084 158.176 208.76 157.963 208.512 157.809C197.244 150.785 182.416 154.225 175.392 165.494C168.368 176.762 171.809 191.59 183.077 198.614L279.659 258.817L281.171 259.764C289.345 264.869 300.247 263.482 306.851 256.028L395.207 156.301C399.579 151.377 399.713 143.853 395.267 138.765Z" fill="#F69D85"/>
<path d="M371.319 148.128C371.319 148.128 378.889 134.329 390.968 129.533C403.047 124.736 408.882 125.586 413.665 128.342C418.447 131.097 404.443 150.016 396.627 153.716C388.811 157.416 378.343 158.486 371.319 148.128Z" fill="#F69D85"/>
<path d="M391.064 129.375C399.824 124.807 407.801 118.531 414.139 110.932C416.469 108.056 421.128 111.389 419.193 114.511C417.16 118.093 414.78 121.558 412.188 124.765C407.562 130.36 402.41 135.604 396.493 139.855C389.153 144.7 382.861 132.583 391.064 129.375Z" fill="#F69D85"/>
<path d="M396.797 130.233C405.972 126.712 414.481 121.142 421.19 113.932C423.679 111.195 428.139 114.785 426.031 117.791C424.131 120.7 422.035 123.536 419.682 126.105C414.213 132.092 407.906 137.449 400.776 141.374C392.747 145.37 388.042 132.233 396.797 130.233Z" fill="#F69D85"/>
<path d="M399.541 134.081C408.922 131.788 417.862 127.178 424.991 120.631C427.625 117.886 432.043 121.805 429.651 124.733C427.53 127.493 425.197 130.157 422.609 132.504C416.513 138.042 409.493 142.783 401.771 145.746C393.018 148.717 390.3 134.549 399.541 134.081Z" fill="#F69D85"/>
<path d="M391.638 145.01C401.604 143.957 411.525 140.594 419.763 134.826C423.596 133.296 427.688 124.489 431.7 127.703C437.673 134.139 410.509 151.683 404.694 153.008C400.726 154.596 396.661 156.002 392.43 156.775C383.892 158.155 382.977 144.789 391.638 145.01Z" fill="#F69D85"/>
<path d="M399.556 140.797C399.555 140.815 399.554 140.834 399.552 140.854C399.514 141.169 399.227 141.394 398.911 141.355C395.747 140.971 392.512 142.136 392.48 142.148C392.238 142.236 391.967 142.153 391.816 141.945C391.665 141.735 391.672 141.452 391.83 141.25C394.184 138.269 393.627 131.909 393.621 131.844C393.587 131.525 393.825 131.248 394.142 131.218C394.458 131.189 394.738 131.421 394.768 131.738C394.792 131.984 395.243 137.126 393.552 140.636C394.884 140.31 396.955 139.958 399.05 140.212C399.346 140.249 399.563 140.505 399.556 140.797Z" fill="#BC6B55"/>
<path d="M417.554 118.082C417.55 118.223 417.496 118.363 417.39 118.471C417.105 118.763 410.339 125.671 404.583 128.42C404.297 128.557 403.954 128.435 403.816 128.148C403.678 127.86 403.801 127.517 404.088 127.38C409.656 124.722 416.497 117.738 416.566 117.667C416.788 117.44 417.152 117.435 417.38 117.657C417.499 117.773 417.557 117.929 417.554 118.082Z" fill="#BC6B55"/>
<path d="M422.782 123.199C422.778 123.347 422.719 123.493 422.603 123.603C422.358 123.837 416.53 129.354 411.942 131.786C411.661 131.935 411.312 131.828 411.164 131.547C411.014 131.266 411.122 130.918 411.403 130.769C415.85 128.411 421.751 122.824 421.81 122.768C422.041 122.55 422.405 122.559 422.624 122.789C422.733 122.904 422.786 123.052 422.782 123.199Z" fill="#BC6B55"/>
<path d="M422.052 133.38C422.048 133.55 421.971 133.715 421.825 133.825C421.589 134.005 415.993 138.256 412.203 139.924C411.911 140.053 411.572 139.921 411.444 139.629C411.315 139.338 411.448 138.999 411.739 138.871C415.403 137.258 421.071 132.952 421.127 132.909C421.38 132.716 421.741 132.765 421.934 133.018C422.017 133.127 422.055 133.254 422.052 133.38Z" fill="#BC6B55"/>
<path d="M370.826 144.464C375.523 134.988 382.263 126.42 390.683 119.986C391.272 119.548 392.771 118.554 393.376 118.116C397.928 115.722 401.096 121.485 396.081 124.825C389.447 131.371 384.663 139.805 381.787 148.633C379.863 157.79 366.307 152.679 370.826 144.464Z" fill="#F69D85"/>
<path d="M360.999 148.725L367.324 144.536C367.324 144.536 372.473 154.463 388.362 164.908L382.625 172.116C382.625 172.116 363.5 162.26 360.999 148.725Z" fill="#F8F9EC"/>
<path d="M187.426 144.536C187.426 144.536 230.143 146.155 289.06 204.628L360.557 146.155C360.557 146.155 368.815 164.466 387.194 170.645C387.194 170.645 334.959 269.064 296.122 274.36C261.819 279.038 200.051 247.439 200.051 247.439L187.426 144.536Z" fill="#3D5577"/>
<path d="M227.484 335.132C228.727 268.453 127.316 280.377 143.933 344.915C161.658 404.768 173.884 466.41 184.71 527.847C182.902 572.377 177.989 617.472 173.156 661.78C171.189 680.059 169.451 698.36 167.981 716.685C167.57 725.875 165.36 734.909 168.744 744.429C174.162 761.458 199.569 763.89 207.973 747.853C215.664 730.388 213.225 711.553 215.923 693.19C219.56 636.832 224.043 579.776 230.143 523.739C226.443 461.082 224.045 397.848 227.484 335.132Z" fill="#F69D85"/>
<path d="M243.19 378.856C243.19 378.856 258.029 494.854 258.61 522.656C259.255 553.503 225.303 731.266 225.303 731.266C225.303 731.266 170.897 752.206 166.96 731.266C148.621 633.723 174.848 526.499 174.848 526.499L130.48 340.023L243.19 378.856Z" fill="#3D5577"/>
<path d="M163.888 760.903C164.192 762.068 164.702 763.144 165.378 764.089C167.053 766.44 169.75 767.982 172.813 767.998L242.859 768.245C246.346 768.261 248.998 766.256 250.333 763.572C250.744 762.757 251.03 761.874 251.176 760.963C251.622 758.231 250.835 755.264 248.437 753.078L225.303 731.266C192.882 736.106 166.96 731.266 166.96 731.266L165.93 736.815C164.77 743.058 164.024 749.372 163.697 755.715L163.584 757.903C163.531 758.944 163.637 759.951 163.888 760.903Z" fill="#263656"/>
<path d="M163.888 760.903C164.939 764.958 168.517 767.975 172.813 767.998L242.859 768.245C247.406 768.262 250.544 764.853 251.177 760.963L163.888 760.903Z" fill="#3D5577"/>
<path d="M86.2441 765.976C85.2437 765.976 84.2324 765.911 83.2138 765.775C70.7684 764.117 62.0236 752.684 63.6816 740.239L92.3156 525.273V345.477C92.3156 332.922 102.493 322.744 115.049 322.744C127.603 322.744 137.782 332.922 137.782 345.477V526.781C137.782 527.784 137.715 528.787 137.583 529.782L108.749 746.243C107.228 757.669 97.4646 765.976 86.2441 765.976Z" fill="#F69D85"/>
<path d="M167.426 341.775C167.426 341.775 166.099 503.174 161.253 528.907C155.549 559.193 121.078 731.266 121.078 731.266C121.078 731.266 67.5245 749.756 64.8575 731.266C51.0498 635.539 72.2935 526.499 72.2935 526.499C72.2935 526.499 45.9488 398.878 63.4975 340.47C70.9748 315.585 167.426 341.775 167.426 341.775Z" fill="#3D5577"/>
<path d="M61.3324 760.903C61.6367 762.068 62.1465 763.144 62.8222 764.089C64.4978 766.44 67.1948 767.982 70.2578 767.998L140.303 768.245C143.79 768.261 146.443 766.256 147.777 763.572C148.189 762.757 148.474 761.874 148.621 760.963C149.067 758.231 148.28 755.264 145.881 753.078L136.221 744.277L121.078 731.266C88.6571 736.106 64.857 731.266 64.857 731.266L64.1092 734.728C62.4612 742.357 61.4313 750.108 61.029 757.902C60.976 758.944 61.0812 759.951 61.3324 760.903Z" fill="#263656"/>
<path d="M61.3324 760.903C62.3841 764.958 65.9617 767.975 70.2577 767.998L140.303 768.245C144.851 768.262 147.989 764.853 148.621 760.963L61.3324 760.903Z" fill="#3D5577"/>
<path d="M164.501 483.607C164.485 483.607 164.468 483.607 164.452 483.606C164.12 483.578 163.873 483.288 163.9 482.956C163.935 482.54 167.326 441.168 168.277 425.93C168.297 425.598 168.572 425.338 168.915 425.367C169.247 425.387 169.499 425.673 169.479 426.005C168.527 441.255 165.134 482.638 165.1 483.055C165.075 483.369 164.812 483.607 164.501 483.607Z" fill="#263656"/>
<path d="M100.67 719.418C79.8507 719.418 62.8259 714.718 62.595 714.653C62.2744 714.564 62.088 714.231 62.1783 713.911C62.2685 713.59 62.6032 713.404 62.9211 713.494C63.2331 713.581 94.423 722.188 123.902 715.951C124.231 715.878 124.547 716.09 124.616 716.415C124.685 716.741 124.477 717.06 124.151 717.129C116.238 718.803 108.206 719.418 100.67 719.418Z" fill="#263656"/>
<path d="M103.866 705.983C81.0996 705.983 61.7047 701.284 61.448 701.221C61.1251 701.14 60.9283 700.814 61.0077 700.491C61.0875 700.169 61.4136 699.979 61.7369 700.05C62.0752 700.135 95.8796 708.322 126.52 702.962C126.846 702.911 127.16 703.124 127.217 703.452C127.274 703.78 127.055 704.092 126.728 704.149C119.115 705.481 111.309 705.983 103.866 705.983Z" fill="#263656"/>
<path d="M202.284 707.806C178.242 707.806 163.597 703.652 163.403 703.595C163.083 703.501 162.9 703.167 162.993 702.847C163.086 702.529 163.422 702.35 163.739 702.438C163.999 702.513 190.148 709.92 230.079 704.799C230.408 704.749 230.711 704.989 230.753 705.32C230.796 705.65 230.562 705.951 230.233 705.994C219.942 707.314 210.557 707.806 202.284 707.806Z" fill="#263656"/>
<path d="M202.776 721.998C181.545 721.998 164.582 717.101 164.35 717.032C164.031 716.939 163.848 716.603 163.942 716.284C164.037 715.965 164.371 715.783 164.69 715.877C165.006 715.969 196.663 725.1 227.52 718.247C227.846 718.17 228.166 718.38 228.238 718.705C228.31 719.03 228.105 719.351 227.781 719.423C219.287 721.31 210.73 721.998 202.776 721.998Z" fill="#263656"/>
<path d="M155.121 560.987C154.915 560.987 154.715 560.882 154.602 560.692C134.412 526.648 162.716 506.558 163.004 506.359C163.278 506.171 163.653 506.238 163.842 506.512C164.031 506.786 163.963 507.161 163.689 507.35C163.619 507.398 156.643 512.291 152.198 521.202C146.253 533.122 147.41 546.202 155.639 560.077C155.808 560.364 155.714 560.733 155.428 560.903C155.331 560.96 155.225 560.987 155.121 560.987Z" fill="#263656"/>
<path d="M254.814 560.987C254.621 560.987 254.432 560.895 254.316 560.724C232.535 528.761 257.143 508.598 257.395 508.398C257.654 508.192 258.033 508.233 258.24 508.494C258.448 508.754 258.404 509.133 258.145 509.34C258.084 509.388 252.035 514.286 248.689 522.944C244.272 534.376 246.561 547.206 255.311 560.045C255.498 560.32 255.427 560.695 255.153 560.882C255.049 560.953 254.931 560.987 254.814 560.987Z" fill="#263656"/>
<path d="M171.669 94.5461H136.481V149.705H171.669V94.5461Z" fill="#F69D85"/>
<path d="M143.043 122.123C157.856 129.628 171.669 128.095 171.669 128.095V117.411L143.043 122.123Z" fill="#D1836B"/>
<path d="M190.654 66.3294C190.654 66.3294 202.018 54.7202 192.213 47.3871L177.696 47.4629C177.696 47.4629 187.818 56.9184 190.654 66.3294Z" fill="#BC6640"/>
<path d="M162.529 124.512C182.705 121.271 196.432 102.287 193.19 82.1117L190.143 63.149C186.902 42.9737 167.918 29.2463 147.743 32.4879C127.568 35.7295 113.84 54.713 117.082 74.8883L120.129 93.851C123.37 114.027 142.354 127.754 162.529 124.512Z" fill="#F69D85"/>
<path d="M125.672 88.9683C126.755 83.6494 123.321 78.4597 118.002 77.3768C112.683 76.2939 107.494 79.7279 106.411 85.0468C105.328 90.3657 108.762 95.5553 114.081 96.6382C119.4 97.7211 124.589 94.2872 125.672 88.9683Z" fill="#F69D85"/>
<path d="M200.182 81.8065C203.363 77.4082 202.376 71.2641 197.977 68.0833C193.579 64.9025 187.435 65.8895 184.254 70.2878C181.073 74.6861 182.06 80.8301 186.459 84.0109C190.857 87.1917 197.001 86.2048 200.182 81.8065Z" fill="#F69D85"/>
<path d="M153.008 342.764H155.143C187.644 342.764 213.99 316.417 213.99 283.917V193.811C213.99 161.311 187.644 134.964 155.143 134.964H153.008C125.87 134.964 94.1613 161.311 94.1613 193.811V283.917C94.1613 316.417 120.508 342.764 153.008 342.764Z" fill="#F69D85"/>
<path d="M149.146 76.1604C149.583 78.8854 148.81 81.2745 147.421 81.4972C146.032 81.7198 144.552 79.6913 144.116 76.9662C143.679 74.2412 144.451 71.8521 145.84 71.6294C147.229 71.4068 148.709 73.4353 149.146 76.1604Z" fill="#4E484A"/>
<path d="M171.203 72.6267C171.64 75.3518 170.868 77.7409 169.478 77.9635C168.089 78.1862 166.609 76.1577 166.173 73.4326C165.736 70.7075 166.508 68.3185 167.898 68.0958C169.287 67.8731 170.767 69.9016 171.203 72.6267Z" fill="#4E484A"/>
<path d="M176.295 19.4131C168.727 14.5316 148.697 7.77987 135.439 14.3089C124.954 19.472 121.445 28.5162 120.432 35.7386C115.162 38.5866 113.735 43.5211 112.573 53.1512C112.121 56.9021 113.876 60.7972 113.212 64.3545C111.593 73.0299 117.466 77.281 117.466 77.281C117.466 77.281 126.384 74.8258 132.385 63.5141C135.915 56.8581 135.621 47.3872 135.621 47.3872C143.556 51.9372 147.881 46.6412 151.605 43.7021C151.605 43.7021 173.87 66.3294 192.213 47.3872C192.213 47.3872 190.664 28.6808 176.295 19.4131Z" fill="#BC6640"/>
<path d="M134.95 88.4275C134.95 90.4025 136.704 92.0038 138.869 92.0038C141.033 92.0038 142.788 90.403 142.788 88.4275C142.788 86.4525 141.033 84.8517 138.869 84.8517C136.704 84.8517 134.95 86.4525 134.95 88.4275Z" fill="#D1836B"/>
<path d="M180.214 87.0072C182.379 87.0072 184.133 85.4061 184.133 83.4309C184.133 81.4558 182.379 79.8546 180.214 79.8546C178.05 79.8546 176.295 81.4558 176.295 83.4309C176.295 85.4061 178.05 87.0072 180.214 87.0072Z" fill="#D1836B"/>
<path d="M192.864 81.8005C192.584 81.8005 192.339 81.5969 192.296 81.3121C191.725 77.5871 194.114 76.5032 195.694 75.7862C196.402 75.4652 197.07 75.1618 197.216 74.7645C197.299 74.5441 197.244 74.2257 197.055 73.8185C195.567 70.6154 191.476 71.0086 191.301 71.0249C190.976 71.0608 190.702 70.829 190.668 70.5138C190.634 70.1982 190.862 69.9148 191.177 69.8803C191.383 69.8567 196.26 69.3765 198.099 73.3333C198.427 74.0394 198.491 74.6389 198.296 75.1649C197.982 76.0121 197.102 76.4121 196.169 76.8347C194.609 77.5426 192.995 78.275 193.433 81.138C193.482 81.4523 193.266 81.7461 192.952 81.7942C192.922 81.7983 192.893 81.8005 192.864 81.8005Z" fill="#BC6B55"/>
<path d="M116.24 93.46C116.225 93.46 116.21 93.4596 116.196 93.4582C115.879 93.4337 115.641 93.1571 115.666 92.8401C115.889 89.9527 114.226 89.3432 112.617 88.7532C111.656 88.4008 110.748 88.0684 110.371 87.2471C110.138 86.7369 110.157 86.1347 110.432 85.4059C111.969 81.3212 116.87 81.4414 117.075 81.4455C117.393 81.4564 117.641 81.7217 117.631 82.0391C117.621 82.3561 117.345 82.6014 117.038 82.596C116.864 82.5906 112.753 82.5053 111.509 85.8113C111.351 86.2317 111.32 86.5537 111.418 86.7668C111.594 87.1519 112.283 87.4045 113.013 87.672C114.642 88.2688 117.105 89.1718 116.814 92.9285C116.791 93.2306 116.538 93.46 116.24 93.46Z" fill="#BC6B55"/>
<path d="M171.67 137.318C171.67 137.318 210.847 146.696 224.082 193.848C238.163 244.015 220.754 280.851 244.748 356.449C247.103 363.867 247.105 380.216 239.63 382.381C223.187 387.144 185.389 393.144 138.868 390.496C66.6184 386.382 59.3842 381.656 59.3842 381.656C59.3842 381.656 74.6753 330.975 80.5943 279.182C86.2731 229.493 69.7126 168.162 119.518 141.219C119.518 141.219 124.931 143.576 136.482 137.32C136.482 137.32 156.584 151.819 171.67 137.318Z" fill="#263656"/>
<path d="M158.683 97.2277C156.614 97.2277 154.333 96.9257 151.934 96.1162C151.633 96.0141 151.471 95.6881 151.573 95.3865C151.674 95.0849 152 94.923 152.302 95.0251C161.048 97.9764 168.318 93.6877 168.391 93.6437C168.662 93.4795 169.016 93.5671 169.181 93.8396C169.345 94.1122 169.257 94.4654 168.985 94.6296C168.752 94.7702 164.583 97.2277 158.683 97.2277Z" fill="#BC6B55"/>
<path d="M160.394 90.4692C160.171 90.4692 159.96 90.3399 159.865 90.1236C159.739 89.8325 159.872 89.4933 160.163 89.3658C161.442 88.8076 163.982 87.2938 163.667 86.1764C163.228 84.6199 159.514 77.9512 158.12 75.5137C157.962 75.2375 158.058 74.886 158.334 74.7282C158.61 74.5699 158.962 74.6665 159.119 74.9418C159.327 75.3046 164.208 83.8535 164.775 85.8644C165.446 88.2448 161.118 90.2057 160.622 90.4216C160.548 90.4538 160.47 90.4692 160.394 90.4692Z" fill="#BC6B55"/>
<path d="M171.669 134.964L182.384 141.531L175.39 159.034L162.255 149.056L152.76 160.867L126.99 141.131L136.481 134.965C136.481 134.965 160.403 146.902 171.669 134.964Z" fill="#F8F9EC"/>
<path d="M102.095 355.685C102.029 355.685 101.962 355.683 101.896 355.678C100.386 355.569 99.2491 354.257 99.3575 352.747C99.762 347.114 95.5086 342.203 89.8757 341.798L68.8551 340.289C66.1277 340.094 63.4852 340.971 61.4172 342.762C59.3493 344.553 58.1026 347.042 57.9067 349.771L57.7443 352.03C57.6359 353.541 56.3235 354.674 54.8133 354.569C53.3027 354.46 52.1667 353.148 52.2751 351.638L52.4375 349.378C52.7386 345.189 54.6524 341.367 57.8278 338.618C61.0032 335.868 65.057 334.518 69.2482 334.82L90.2689 336.329C94.4583 336.63 98.2799 338.545 101.03 341.72C103.78 344.895 105.128 348.951 104.827 353.14C104.723 354.583 103.52 355.685 102.095 355.685Z" fill="#D85648"/>
<path d="M15.6885 459.588L108.352 466.24L112.99 466.575L125.452 467.471C134.198 468.104 141.798 461.52 142.432 452.774L148.213 372.173C148.846 363.427 142.262 355.827 133.516 355.193L28.3929 347.656L23.7545 347.322C15.0083 346.688 7.39764 353.275 6.77498 362.019L0.991503 442.609C0.360685 451.365 6.94505 458.965 15.6885 459.588Z" fill="#D85648"/>
<path d="M15.6886 459.588L108.352 466.24L112.99 466.575C121.736 467.208 129.347 460.621 129.97 451.878L135.754 371.288C136.384 362.531 129.8 354.931 121.057 354.308L28.3934 347.656L23.755 347.321C15.0088 346.688 7.39819 353.275 6.77553 362.018L0.99205 442.608C0.360778 451.365 6.94514 458.965 15.6886 459.588Z" fill="#F66A57"/>
<path d="M98.0438 417.604C98.0302 417.604 98.0165 417.604 98.0025 417.603L82.2103 416.435C81.9014 416.412 81.6701 416.144 81.6928 415.835L82.8601 400.044C82.8828 399.734 83.1504 399.508 83.4606 399.526L99.2528 400.693C99.4011 400.704 99.5385 400.773 99.636 400.886C99.733 400.998 99.7811 401.145 99.7702 401.293L98.6029 417.085C98.5921 417.233 98.5226 417.371 98.4102 417.468C98.3077 417.556 98.1775 417.604 98.0438 417.604ZM82.852 415.359L97.5263 416.444L98.6106 401.77L83.9363 400.685L82.852 415.359Z" fill="#D85648"/>
<path d="M53.3264 414.372C53.3123 414.372 53.2987 414.372 53.2842 414.371L37.492 413.204C37.3437 413.193 37.2063 413.124 37.1088 413.011C37.0117 412.898 36.9637 412.752 36.9745 412.604L38.1418 396.812C38.1645 396.503 38.4321 396.277 38.7423 396.294L54.5345 397.461C54.6828 397.472 54.8202 397.541 54.9177 397.654C55.0148 397.767 55.0628 397.913 55.052 398.061L53.8846 413.853C53.8629 414.148 53.6175 414.372 53.3264 414.372ZM38.1341 412.127L52.8085 413.212L53.8928 398.538L39.2185 397.453L38.1341 412.127Z" fill="#D85648"/>
<path d="M38.1178 405.314C38.1042 405.314 38.0906 405.313 38.077 405.312L19.6599 403.981C19.3511 403.959 19.1189 403.69 19.1415 403.382L23.1958 347.281C23.2181 346.972 23.4911 346.737 23.7949 346.762C24.1037 346.784 24.3359 347.053 24.3137 347.361L20.2998 402.904L38.1577 404.195C38.4665 404.217 38.6987 404.485 38.6765 404.794C38.6547 405.089 38.4085 405.314 38.1178 405.314Z" fill="#D85648"/>
<path d="M82.8355 408.546C82.8219 408.546 82.8083 408.545 82.7947 408.544L53.871 406.454C53.5621 406.432 53.3299 406.163 53.3526 405.855C53.3748 405.546 53.646 405.317 53.9517 405.336L82.8755 407.426C83.1843 407.448 83.4165 407.717 83.3938 408.025C83.3725 408.321 83.1262 408.546 82.8355 408.546Z" fill="#D85648"/>
<path d="M116.999 411.015C116.986 411.015 116.972 411.014 116.958 411.013L98.5889 409.686C98.2801 409.664 98.0479 409.395 98.0701 409.087C98.0923 408.778 98.3621 408.546 98.6692 408.568L116.479 409.855L120.497 354.268C120.519 353.959 120.791 353.725 121.096 353.75C121.405 353.772 121.637 354.041 121.615 354.349L117.557 410.495C117.536 410.79 117.29 411.015 116.999 411.015Z" fill="#D85648"/>
<path d="M173.968 65.0655C173.835 65.0655 173.7 65.0379 173.571 64.9798C168.209 62.5618 161.858 64.9748 161.795 64.9993C161.298 65.1921 160.739 64.9467 160.545 64.4497C160.351 63.9531 160.596 63.3939 161.093 63.1998C161.383 63.0878 168.25 60.4616 174.365 63.2189C174.852 63.4384 175.068 64.0102 174.849 64.4964C174.687 64.8537 174.336 65.0655 173.968 65.0655Z" fill="#BC6B55"/>
<path d="M138.87 70.3093C138.589 70.3093 138.31 70.1873 138.12 69.9529C137.783 69.5393 137.845 68.9321 138.258 68.5951C138.493 68.4037 144.074 63.9091 151.456 64.3893C151.988 64.4238 152.392 64.8832 152.357 65.4156C152.323 65.9485 151.852 66.3507 151.331 66.3172C144.747 65.8981 139.529 70.0513 139.478 70.0935C139.299 70.2386 139.083 70.3093 138.87 70.3093Z" fill="#BC6B55"/>
<path d="M72.2609 391.007C72.2609 391.007 85.2138 399.947 88.7515 412.453C92.2893 424.959 90.8471 430.677 87.6178 435.153C84.3884 439.629 66.9994 423.765 64.1169 415.612C61.2345 407.459 61.239 396.936 72.2609 391.007Z" fill="#F69D85"/>
<path d="M77.7301 393.272C85.7793 398.32 92.8439 404.976 98.2882 412.767C98.9271 413.802 100.034 415.404 100.583 416.484C101.996 418.453 102.993 421.569 100.307 422.989C97.8991 424.372 95.8959 422.288 94.6855 420.4C88.8526 413.133 80.9513 407.512 72.4622 403.75C63.551 400.899 70.0201 387.937 77.7301 393.272Z" fill="#F69D85"/>
<path d="M88.8989 412.565C92.5482 421.745 97.9766 430.322 104.889 437.403C107.511 440.014 103.72 444.309 100.811 442.065C97.4564 439.677 94.2529 436.956 91.3264 434.05C86.2341 428.876 81.5431 423.215 77.9187 416.895C73.8485 409.098 86.5452 404.077 88.8989 412.565Z" fill="#F69D85"/>
<path d="M87.4581 418.176C89.1375 424.564 91.9614 430.694 95.4665 436.298C96.7676 440.046 104.44 444.279 100.74 448.176C96.6102 451.673 87.9271 439.29 85.1866 436.389C81.5477 431.605 78.2258 426.479 75.9256 420.892C72.7416 412.388 86.5085 409.135 87.4581 418.176Z" fill="#F69D85"/>
<path d="M83.3929 420.745C84.3621 430.349 88.1719 439.788 94.432 447.176C96.8301 449.986 92.7142 453.954 89.9991 451.49C86.7262 448.765 83.7625 445.61 81.242 442.161C76.6775 435.718 72.9964 428.439 71.3938 420.655C69.6841 410.895 85.2509 411.009 83.3929 420.745Z" fill="#F69D85"/>
<path d="M73.6562 412.099C73.4998 422.099 75.7904 432.323 80.6343 441.106C81.7413 445.07 90.0702 450.139 86.4118 453.771C80.8755 457.969 70.3298 439.492 68.2823 435.14C64.8416 427.649 62.472 419.591 61.8757 411.34C61.5564 402.6 75.0943 403.458 73.6562 412.099Z" fill="#F69D85"/>
<path d="M91.8566 432.479C90.6231 430.489 89.4395 428.292 88.6232 426.128C88.5112 425.83 88.6613 425.498 88.9588 425.386C89.2558 425.274 89.5878 425.42 89.7007 425.722C92.131 432.167 98.1476 439.188 98.2079 439.258C98.4183 439.496 98.3888 439.862 98.1476 440.07C97.9072 440.278 97.544 440.251 97.3363 440.009C97.1662 439.813 94.4048 436.59 91.8566 432.479Z" fill="#BC6B55"/>
<path d="M87.249 438.057C86.069 436.153 84.8895 434.063 84.0745 432.165C83.9494 431.873 84.0845 431.534 84.3761 431.409C84.6682 431.284 85.0042 431.422 85.1325 431.71C87.3139 436.79 92.3668 443.543 92.418 443.611C92.6171 443.865 92.5572 444.225 92.3033 444.416C92.0493 444.607 91.6888 444.556 91.4974 444.302C91.3636 444.123 89.3052 441.374 87.249 438.057Z" fill="#BC6B55"/>
<path d="M81.2057 442.806C81.2025 442.801 81.1998 442.796 81.1967 442.791C81.067 442.568 77.9922 437.26 76.6594 432.845C76.5678 432.542 76.7397 432.22 77.0444 432.128C77.3487 432.036 77.6702 432.21 77.7618 432.513C79.0548 436.797 82.1612 442.158 82.1925 442.212C82.3522 442.486 82.2588 442.839 81.9839 442.999C81.7141 443.157 81.369 443.069 81.2057 442.806Z" fill="#BC6B55"/>
<path d="M51.1532 399.797C51.1532 399.797 71.6083 400.436 89.639 383.959C89.639 383.959 62.6027 374.738 51.1532 399.797Z" fill="#263656"/>
<path d="M97.0669 160.566C85.5453 155.315 71.9489 160.398 66.6978 171.92L14.4583 286.542L13.7957 287.996C11.7722 292.488 11.6026 297.791 13.7694 302.643L62.088 410.847C64.8521 417.056 71.8913 420.348 78.536 418.271C85.6936 416.035 89.683 408.419 87.4464 401.261L54.9422 297.242L108.038 191.734C108.155 191.498 108.31 191.177 108.42 190.935C113.672 179.413 108.589 165.816 97.0669 160.566Z" fill="#F69D85"/>
<path d="M84.0273 384.527L86.0436 393.228C86.0436 393.228 73.6571 394.354 57.9447 403.673L53.9104 396.023C53.9104 396.023 69.5067 378.474 84.0273 384.527Z" fill="#F8F9EC"/>
<path d="M119.518 141.219C119.518 141.219 79.2715 139.704 49.4126 181.826C32.9361 205.07 -3.83234 259.693 0.949821 299.075C4.23815 326.157 51.1532 399.797 51.1532 399.797C51.1532 399.797 64.8026 385.43 89.639 383.959L65.2257 297.777C65.2257 297.777 101.748 253.469 113.92 211.689C122.067 183.725 119.518 141.219 119.518 141.219Z" fill="#3D5577"/>
<path d="M126.99 141.13C126.99 141.13 146.199 252.651 143.043 359.276H135.192C135.192 359.276 142.842 291.418 119.519 141.219C119.519 141.219 122.919 138.095 126.99 141.13Z" fill="#D85648"/>
<path d="M113.214 64.3535C113.214 64.3535 102.823 59.2158 100.785 49.4238C97.2737 32.5541 126.207 7.00526 137.903 2.34781C154.202 -4.14359 184.545 10.8051 192.213 18.4321C198.919 25.1013 193.55 39.8337 187.347 44.56C187.347 44.56 177.696 29.4168 152.359 33.1436C139.723 35.0025 124.444 48.1064 113.214 64.3535Z" fill="#404660"/>
<path d="M113.214 64.3535C113.214 64.3535 119.047 42.9511 138.869 30.9859C153.581 22.1055 176.479 22.9436 191.701 34.9087C206.922 46.8738 199.37 54.2296 187.348 44.5601C178.188 37.1934 137.903 22.5517 113.214 64.3535Z" fill="#263656"/>
<path d="M151.264 13.3647C152.224 16.9206 151.094 20.3182 148.741 20.9535C146.388 21.5889 143.702 19.2207 142.742 15.6648C141.782 12.1089 142.912 8.71131 145.265 8.07596C147.618 7.44061 150.304 9.80878 151.264 13.3647Z" fill="#F99F78"/>
</svg>
