<svg width="585" height="372" viewBox="0 0 585 372" fill="none" xmlns="http://www.w3.org/2000/svg">
<path d="M300.924 370.813C299.245 370.977 297.574 371.149 295.059 371.399C225.297 376.351 160.083 350.375 132.824 305.891L139.886 300.276C165.181 342.004 227.683 366.283 294.094 361.666C364.692 356.637 424.472 319.25 439.216 271.588L447.149 274.731C432.679 325.313 372.167 363.751 300.924 370.813Z" fill="white"/>
<path d="M111.31 365.207C102.542 365.275 91.1217 363.648 79.6841 359.436C47.1458 348.498 10.9644 321.231 1.91253 285.988C-8.035 249.031 21.4717 210.034 75.2917 139.841C161.202 25.4575 173.544 33.1055 178.832 36.516C186.764 41.6233 182.475 52.8541 172.132 75.3243C159.221 105.572 137.698 156.558 134.727 222.901C133.254 258.23 137.862 285.747 140.653 305.539C144.365 331.351 147.138 348.55 134.055 358.127C128.828 362.476 120.956 365.129 111.31 365.207ZM174.5 43.4406C174.5 43.4406 160.453 41.83 82.3368 144.087C26.7943 217.742 2.50681 251.529 10.6629 283.327C18.819 315.994 53.2263 340.687 83.1292 350.789C103.36 357.516 120.025 358.248 129.62 351.28C138.344 345.182 137.363 332.272 132.772 306.469C129.095 285.824 125.365 258.299 126.829 222.109C129.792 154.043 152.176 102.187 165.086 71.0783C169.367 59.8389 175.404 46.877 174.5 43.4406Z" fill="white"/>
<path d="M503.897 367.773C503.036 367.773 502.174 367.773 500.452 367.773C474.614 365.189 456.528 318.681 416.049 217.914C410.02 202.411 405.713 191.215 401.407 175.712C401.407 174.851 372.124 64.6102 399.685 52.5526C410.02 48.2463 418.632 59.4426 434.996 79.2516C449.638 98.1993 472.892 126.621 509.064 157.626C526.29 172.267 538.347 180.88 548.682 188.631C565.046 200.689 574.52 206.718 580.549 223.082C593.468 259.255 575.381 304.901 552.127 334.184C536.625 356.577 519.4 367.773 503.897 367.773ZM404.852 61.1651C392.795 65.4714 396.24 120.592 410.881 173.99C415.187 188.631 418.632 199.828 424.661 215.33C460.834 306.624 480.643 357.438 502.174 359.16C515.093 360.022 531.457 349.687 546.96 330.739C567.63 304.04 585.716 260.116 573.659 227.388C568.491 213.608 561.601 208.44 545.237 197.244C534.902 190.354 521.983 180.88 504.758 166.239C467.724 134.372 444.47 105.951 429.829 86.1416C417.771 72.3615 409.158 61.1651 404.852 61.1651Z" fill="white"/>
<path d="M418.632 211.885C413.464 198.966 410.019 188.631 406.574 175.712C395.378 135.233 385.043 65.4714 402.268 57.7201C410.019 54.2751 418.632 65.4714 434.135 85.2804C403.991 33.6049 345.425 -0.84547 279.108 0.0157877C217.098 0.877046 163.7 31.8823 133.556 78.3903C153.364 55.9976 172.312 37.0499 179.202 41.3562C191.26 49.1075 137.862 115.424 132.694 223.943C131.833 235.139 131.833 245.474 132.694 254.948C132.694 255.809 133.556 255.809 133.556 256.671C140.446 228.249 171.451 204.134 214.514 191.215C209.346 182.603 205.901 171.406 205.901 159.349C205.901 130.927 223.126 107.673 244.658 107.673C266.189 107.673 283.414 130.927 283.414 159.349C283.414 167.1 282.553 173.99 279.969 180.019C283.414 180.019 286.859 180.019 290.305 180.019C288.582 173.99 286.859 166.239 286.859 159.349C286.859 130.927 304.085 107.673 325.616 107.673C347.148 107.673 364.373 130.927 364.373 159.349C364.373 169.684 361.789 179.157 358.344 187.77C381.598 192.076 402.268 200.689 418.632 211.885Z" fill="white"/>
<path id="nose" d="M298.056 263.561C292.027 262.7 274.802 258.393 265.328 242.891C261.022 236.001 258.438 229.11 258.438 220.498V216.192L332.507 215.33V219.637C332.507 225.665 331.645 234.278 326.478 242.891C318.726 256.671 304.946 261.838 299.779 263.561H298.056ZM267.051 224.804C267.912 229.11 269.635 233.417 272.219 238.584C279.97 250.642 292.889 254.087 297.195 254.948C302.363 253.226 311.836 248.919 317.865 238.584C321.31 233.417 322.172 228.249 323.033 223.943L267.051 224.804Z" fill="white"/>
<path d="M252.409 144.707C242.935 144.707 235.184 154.181 235.184 166.238C235.184 177.435 242.074 186.047 249.825 187.77C246.38 185.186 244.658 180.019 244.658 173.99C244.658 165.377 248.964 158.487 253.27 158.487C258.438 158.487 261.883 165.377 261.883 173.99C261.883 179.157 260.16 184.325 258.438 186.909C264.467 183.464 269.634 175.712 269.634 167.1C269.634 154.181 261.883 144.707 252.409 144.707Z" fill="white"/>
<path d="M317.865 144.707C308.391 144.707 300.64 154.181 300.64 166.238C300.64 176.574 306.669 185.186 313.559 186.909C310.975 184.325 308.391 179.157 308.391 173.129C308.391 164.516 312.697 157.626 317.004 157.626C321.31 157.626 325.616 164.516 325.616 173.129C325.616 179.157 323.894 184.325 320.449 186.909C328.2 184.325 333.368 176.574 333.368 166.238C335.09 154.181 327.339 144.707 317.865 144.707Z" fill="white"/>
<path d="M290.305 334.183H281.692C281.692 332.461 282.553 290.259 316.142 270.45C346.286 252.364 387.627 261.838 411.742 291.982L404.852 297.149C383.32 270.45 346.286 261.838 319.587 277.34C291.166 294.565 290.305 333.322 290.305 334.183Z" fill="white"/>
<path id="tear" d="M209.346 250.642C201.595 250.642 195.566 245.474 192.982 240.307C187.815 229.972 193.844 216.192 206.763 205.857L209.346 204.134L211.93 206.718C224.849 217.914 230.016 233.417 223.988 242.029C222.265 246.336 216.236 250.642 209.346 250.642ZM209.346 216.192C200.734 223.943 198.15 232.556 200.734 236.862C201.595 239.446 205.04 242.029 209.346 242.029C212.791 242.029 215.375 239.446 217.098 237.723C219.681 233.417 217.959 224.804 209.346 216.192Z" fill="white"/>
</svg>
