<svg width="1440" height="324" viewBox="0 0 1440 324" fill="none" xmlns="http://www.w3.org/2000/svg">
<path fill-rule="evenodd" clip-rule="evenodd" d="M0 324L15.6 312C32.4 300 63.6 276 96 228C128.4 180 159.6 108 192 114C224.4 120 255.6 204 288 216C320.4 228 351.6 168 384 138C416.4 108 447.6 108 480 102C512.4 96 543.6 84 576 102C608.4 120 639.6 168 672 168C704.4 168 735.6 120 768 114C800.4 108 831.6 144 864 132C896.4 120 927.6 60 960 60C992.4 60 1023.6 120 1056 174C1088.4 228 1119.6 276 1152 264C1184.4 252 1215.6 180 1248 168C1280.4 156 1311.6 204 1344 222C1376.4 240 1407.6 228 1424.4 222L1440 216V0H1424.4C1407.6 0 1376.4 0 1344 0C1311.6 0 1280.4 0 1248 0C1215.6 0 1184.4 0 1152 0C1119.6 0 1088.4 0 1056 0C1023.6 0 992.4 0 960 0C927.6 0 896.4 0 864 0C831.6 0 800.4 0 768 0C735.6 0 704.4 0 672 0C639.6 0 608.4 0 576 0C543.6 0 512.4 0 480 0C447.6 0 416.4 0 384 0C351.6 0 320.4 0 288 0C255.6 0 224.4 0 192 0C159.6 0 128.4 0 96 0C63.6 0 32.4 0 15.6 0H0V324Z" fill="#1F0812"/>
</svg>
